<?xml version="1.0" standalone="no"?>
<svg xmlns="http://www.w3.org/2000/svg" viewBox="0 0 65 54" width="65" height="54"><g fill="#309514" color="#309514" transform="translate(14.876 0) scale(0.6481482) "><svg width="54.0" height="37.0" x="0.0" y="0.0" viewBox="0 0 54 37"><path fill="currentColor" fill-rule="evenodd" d="M53.252 22.142C51.05 9.572 40.038 0 26.862 0 12.067 0 0 12.067 0 26.86c0 3.237.578 6.343 1.73 9.044 14.863-10.423 31.836-15.314 51.522-13.763m.127 1.503c.276 1.007.344 2.104.344 3.216 0 3.469-.663 6.786-1.898 9.78-9.752.631-11.423-13.057 1.554-12.996"></path></svg></g><line x1="15.925999999999998" y1="29.98148148148148" x2="48.82599999999999" y2="29.98148148148148" stroke="#ffffff" stroke-linecap="round"></line><path fill="#ffffff" fill-rule="nonzero" d="M12.94 0L12.94 17.09L9.60 17.09L9.60 10.18L3.34 10.18L3.34 17.09L0 17.09L0 0L3.34 0L3.34 7.22L9.60 7.22L9.60 0L12.94 0ZM25.80 10.20L29.62 17.09L25.75 17.09L22.42 10.75L20.02 10.75L20.02 17.09L16.68 17.09L16.68 3.67Q16.68 1.75 17.57 0.88Q18.46 0 20.54 0L20.54 0L23.38 0Q25.92 0 27.42 1.55Q28.92 3.10 28.92 5.47L28.92 5.47Q28.92 7.20 28.02 8.46Q27.12 9.72 25.80 10.20L25.80 10.20ZM23.16 7.97Q24.22 7.97 24.90 7.24Q25.58 6.50 25.58 5.41Q25.58 4.32 24.92 3.65Q24.26 2.98 23.16 2.98L23.16 2.98L21.50 2.98Q20.02 2.98 20.02 4.49L20.02 4.49L20.02 7.97L23.16 7.97ZM45 17.09L45 6.89L41.93 13.37Q41.26 14.66 40.26 14.66Q39.26 14.66 38.59 13.30L38.59 13.30L35.47 6.89L35.47 17.09L32.14 17.09L32.14 0L35.42 0L40.25 9.86L45.05 0L48.34 0L48.34 17.09L45 17.09ZM64.73 8.47L64.73 8.47L64.75 10.32Q64.66 12.07 64.32 13.27Q63.98 14.47 63 15.46L63 15.46Q61.37 17.09 58.25 17.09L58.25 17.09Q54.58 17.09 53.21 16.12Q51.84 15.14 51.84 12.60L51.84 12.60L51.84 0L58.49 0Q61.37 0 63 1.63L63 1.63Q64.32 2.95 64.56 4.85L64.56 4.85Q64.73 6.19 64.73 8.47ZM60.67 13.06Q61.13 12.50 61.26 11.53Q61.39 10.56 61.39 8.50Q61.39 6.43 61.26 5.51Q61.13 4.58 60.67 4.03L60.67 4.03Q59.81 2.98 58.18 2.98L58.18 2.98L55.18 2.98L55.18 12.43Q55.18 13.39 55.82 13.75Q56.47 14.11 58.14 14.11Q59.81 14.11 60.67 13.06L60.67 13.06Z" transform="translate(0, 35.982)"></path></svg>